<svg width="60" height="82" viewBox="0 0 60 82" fill="none" xmlns="http://www.w3.org/2000/svg">
<rect x="2" y="52" width="18.4615" height="18.4615" transform="rotate(-45 2 52)" fill="url(#paint0_linear_501010_18)"/>
<rect x="17.23" y="67.23" width="18.4615" height="18.4615" transform="rotate(-45 17.23 67.23)" fill="url(#paint1_linear_501010_18)"/>
<rect x="32.4603" y="52" width="18.4615" height="18.4615" transform="rotate(-45 32.4603 52)" fill="url(#paint2_linear_501010_18)"/>
<rect x="17.23" y="36.77" width="18.4615" height="18.4615" transform="rotate(-45 17.23 36.77)" fill="url(#paint3_linear_501010_18)"/>
<path d="M2.086 13C1.99267 13 1.91333 12.972 1.848 12.916C1.792 12.8507 1.764 12.7713 1.764 12.678V6.84H0.574C0.480667 6.84 0.401333 6.812 0.336 6.756C0.28 6.69067 0.252 6.61133 0.252 6.518V6.042C0.252 5.94867 0.28 5.874 0.336 5.818C0.401333 5.75267 0.480667 5.72 0.574 5.72H1.764V5.02C1.764 4.544 1.84333 4.12867 2.002 3.774C2.16067 3.41 2.41267 3.13 2.758 2.934C3.11267 2.738 3.584 2.64 4.172 2.64H5.012C5.10533 2.64 5.18 2.67267 5.236 2.738C5.292 2.794 5.32 2.86867 5.32 2.962V3.438C5.32 3.53133 5.292 3.61067 5.236 3.676C5.18 3.732 5.10533 3.76 5.012 3.76H4.2C3.76133 3.76 3.46267 3.87667 3.304 4.11C3.14533 4.334 3.066 4.66067 3.066 5.09V5.72H4.872C4.96533 5.72 5.04 5.75267 5.096 5.818C5.152 5.874 5.18 5.94867 5.18 6.042V6.518C5.18 6.61133 5.152 6.69067 5.096 6.756C5.04 6.812 4.96533 6.84 4.872 6.84H3.066V12.678C3.066 12.7713 3.03333 12.8507 2.968 12.916C2.912 12.972 2.83733 13 2.744 13H2.086ZM8.63702 13.14C8.17035 13.14 7.74568 13.0467 7.36302 12.86C6.98035 12.6733 6.67235 12.4213 6.43902 12.104C6.20568 11.7867 6.08902 11.4273 6.08902 11.026C6.08902 10.382 6.35035 9.86867 6.87302 9.486C7.39568 9.10333 8.07702 8.85133 8.91702 8.73L11.003 8.436V8.03C11.003 7.582 10.8723 7.232 10.611 6.98C10.359 6.728 9.94368 6.602 9.36502 6.602C8.94502 6.602 8.60435 6.686 8.34302 6.854C8.09102 7.022 7.91368 7.23667 7.81102 7.498C7.75502 7.638 7.65702 7.708 7.51702 7.708H6.88702C6.78435 7.708 6.70502 7.68 6.64902 7.624C6.60235 7.55867 6.57902 7.484 6.57902 7.4C6.57902 7.26 6.63035 7.08733 6.73302 6.882C6.84502 6.67667 7.01302 6.476 7.23702 6.28C7.46102 6.084 7.74568 5.92067 8.09102 5.79C8.44568 5.65 8.87502 5.58 9.37902 5.58C9.93902 5.58 10.4103 5.65467 10.793 5.804C11.1757 5.944 11.4743 6.13533 11.689 6.378C11.913 6.62067 12.0717 6.896 12.165 7.204C12.2677 7.512 12.319 7.82467 12.319 8.142V12.678C12.319 12.7713 12.2863 12.8507 12.221 12.916C12.165 12.972 12.0903 13 11.997 13H11.353C11.2503 13 11.171 12.972 11.115 12.916C11.059 12.8507 11.031 12.7713 11.031 12.678V12.076C10.9097 12.244 10.7463 12.412 10.541 12.58C10.3357 12.7387 10.079 12.874 9.77102 12.986C9.46302 13.0887 9.08502 13.14 8.63702 13.14ZM8.93102 12.09C9.31368 12.09 9.66368 12.0107 9.98102 11.852C10.2983 11.684 10.5457 11.4273 10.723 11.082C10.9097 10.7367 11.003 10.3027 11.003 9.78V9.388L9.37902 9.626C8.71635 9.71933 8.21702 9.878 7.88102 10.102C7.54502 10.3167 7.37702 10.592 7.37702 10.928C7.37702 11.1893 7.45168 11.4087 7.60102 11.586C7.75968 11.754 7.95568 11.88 8.18902 11.964C8.43168 12.048 8.67902 12.09 8.93102 12.09ZM17.0089 13C16.8689 13 16.7569 12.9673 16.6729 12.902C16.5982 12.8367 16.5376 12.7527 16.4909 12.65L13.9009 6.154C13.8822 6.10733 13.8729 6.06067 13.8729 6.014C13.8729 5.93 13.9009 5.86 13.9569 5.804C14.0129 5.748 14.0829 5.72 14.1669 5.72H14.8389C14.9416 5.72 15.0209 5.748 15.0769 5.804C15.1329 5.86 15.1656 5.91133 15.1749 5.958L17.3169 11.474L19.4449 5.958C19.4636 5.91133 19.4962 5.86 19.5429 5.804C19.5989 5.748 19.6782 5.72 19.7809 5.72H20.4669C20.5416 5.72 20.6069 5.748 20.6629 5.804C20.7282 5.86 20.7609 5.93 20.7609 6.014C20.7609 6.06067 20.7516 6.10733 20.7329 6.154L18.1289 12.65C18.0916 12.7527 18.0309 12.8367 17.9469 12.902C17.8722 12.9673 17.7602 13 17.6109 13H17.0089ZM22.8289 13C22.7355 13 22.6562 12.972 22.5909 12.916C22.5349 12.8507 22.5069 12.7713 22.5069 12.678V6.042C22.5069 5.94867 22.5349 5.874 22.5909 5.818C22.6562 5.75267 22.7355 5.72 22.8289 5.72H23.5009C23.5942 5.72 23.6689 5.75267 23.7249 5.818C23.7809 5.874 23.8089 5.94867 23.8089 6.042V12.678C23.8089 12.7713 23.7809 12.8507 23.7249 12.916C23.6689 12.972 23.5942 13 23.5009 13H22.8289ZM22.7169 4.362C22.6235 4.362 22.5442 4.334 22.4789 4.278C22.4229 4.21267 22.3949 4.13333 22.3949 4.04V3.284C22.3949 3.19067 22.4229 3.116 22.4789 3.06C22.5442 2.99467 22.6235 2.962 22.7169 2.962H23.5989C23.6922 2.962 23.7669 2.99467 23.8229 3.06C23.8882 3.116 23.9209 3.19067 23.9209 3.284V4.04C23.9209 4.13333 23.8882 4.21267 23.8229 4.278C23.7669 4.334 23.6922 4.362 23.5989 4.362H22.7169ZM29.1448 13.14C28.4822 13.14 27.9082 13.014 27.4228 12.762C26.9468 12.5007 26.5782 12.132 26.3168 11.656C26.0555 11.1707 25.9155 10.592 25.8968 9.92C25.8875 9.78 25.8828 9.59333 25.8828 9.36C25.8828 9.12667 25.8875 8.94 25.8968 8.8C25.9155 8.128 26.0555 7.554 26.3168 7.078C26.5782 6.59267 26.9468 6.224 27.4228 5.972C27.9082 5.71067 28.4822 5.58 29.1448 5.58C29.6862 5.58 30.1482 5.65467 30.5308 5.804C30.9228 5.95333 31.2448 6.14467 31.4968 6.378C31.7488 6.61133 31.9355 6.86333 32.0568 7.134C32.1875 7.40467 32.2575 7.66133 32.2668 7.904C32.2762 7.99733 32.2482 8.072 32.1828 8.128C32.1175 8.184 32.0382 8.212 31.9448 8.212H31.2728C31.1795 8.212 31.1095 8.19333 31.0628 8.156C31.0162 8.10933 30.9695 8.03467 30.9228 7.932C30.7548 7.47467 30.5262 7.15267 30.2368 6.966C29.9475 6.77933 29.5882 6.686 29.1588 6.686C28.5988 6.686 28.1415 6.85867 27.7868 7.204C27.4415 7.54933 27.2548 8.10467 27.2268 8.87C27.2175 9.206 27.2175 9.53267 27.2268 9.85C27.2548 10.6247 27.4415 11.1847 27.7868 11.53C28.1415 11.866 28.5988 12.034 29.1588 12.034C29.5882 12.034 29.9475 11.9407 30.2368 11.754C30.5262 11.5673 30.7548 11.2453 30.9228 10.788C30.9695 10.6853 31.0162 10.6153 31.0628 10.578C31.1095 10.5313 31.1795 10.508 31.2728 10.508H31.9448C32.0382 10.508 32.1175 10.536 32.1828 10.592C32.2482 10.648 32.2762 10.7227 32.2668 10.816C32.2575 11.012 32.2155 11.2127 32.1408 11.418C32.0662 11.6233 31.9448 11.8333 31.7768 12.048C31.6182 12.2533 31.4175 12.44 31.1748 12.608C30.9322 12.7667 30.6382 12.8973 30.2928 13C29.9568 13.0933 29.5742 13.14 29.1448 13.14ZM37.1914 13.14C36.4821 13.14 35.8894 13.0047 35.4134 12.734C34.9374 12.4633 34.5734 12.09 34.3214 11.614C34.0694 11.1287 33.9294 10.578 33.9014 9.962C33.8921 9.80333 33.8874 9.60267 33.8874 9.36C33.8874 9.108 33.8921 8.90733 33.9014 8.758C33.9294 8.13267 34.0694 7.582 34.3214 7.106C34.5828 6.63 34.9514 6.25667 35.4274 5.986C35.9034 5.71533 36.4914 5.58 37.1914 5.58C37.8914 5.58 38.4794 5.71533 38.9554 5.986C39.4314 6.25667 39.7954 6.63 40.0474 7.106C40.3088 7.582 40.4534 8.13267 40.4814 8.758C40.4908 8.90733 40.4954 9.108 40.4954 9.36C40.4954 9.60267 40.4908 9.80333 40.4814 9.962C40.4534 10.578 40.3134 11.1287 40.0614 11.614C39.8094 12.09 39.4454 12.4633 38.9694 12.734C38.4934 13.0047 37.9008 13.14 37.1914 13.14ZM37.1914 12.062C37.7701 12.062 38.2321 11.88 38.5774 11.516C38.9228 11.1427 39.1094 10.6013 39.1374 9.892C39.1468 9.752 39.1514 9.57467 39.1514 9.36C39.1514 9.14533 39.1468 8.968 39.1374 8.828C39.1094 8.11867 38.9228 7.582 38.5774 7.218C38.2321 6.84467 37.7701 6.658 37.1914 6.658C36.6128 6.658 36.1461 6.84467 35.7914 7.218C35.4461 7.582 35.2641 8.11867 35.2454 8.828C35.2361 8.968 35.2314 9.14533 35.2314 9.36C35.2314 9.57467 35.2361 9.752 35.2454 9.892C35.2641 10.6013 35.4461 11.1427 35.7914 11.516C36.1461 11.88 36.6128 12.062 37.1914 12.062ZM42.8505 13C42.7572 13 42.6778 12.972 42.6125 12.916C42.5565 12.8507 42.5285 12.7713 42.5285 12.678V6.042C42.5285 5.94867 42.5565 5.874 42.6125 5.818C42.6778 5.75267 42.7572 5.72 42.8505 5.72H43.5085C43.6018 5.72 43.6765 5.75267 43.7325 5.818C43.7978 5.874 43.8305 5.94867 43.8305 6.042V6.658C44.0732 6.34067 44.3765 6.084 44.7405 5.888C45.1138 5.68267 45.5898 5.58 46.1685 5.58C46.7752 5.58 47.2885 5.71533 47.7085 5.986C48.1378 6.24733 48.4598 6.616 48.6745 7.092C48.8892 7.55867 48.9965 8.10467 48.9965 8.73V12.678C48.9965 12.7713 48.9685 12.8507 48.9125 12.916C48.8565 12.972 48.7818 13 48.6885 13H47.9885C47.8952 13 47.8158 12.972 47.7505 12.916C47.6945 12.8507 47.6665 12.7713 47.6665 12.678V8.8C47.6665 8.14667 47.5078 7.638 47.1905 7.274C46.8732 6.90067 46.4065 6.714 45.7905 6.714C45.2118 6.714 44.7452 6.90067 44.3905 7.274C44.0452 7.638 43.8725 8.14667 43.8725 8.8V12.678C43.8725 12.7713 43.8398 12.8507 43.7745 12.916C43.7185 12.972 43.6438 13 43.5505 13H42.8505Z" fill="black"/>
<defs>
<linearGradient id="paint0_linear_501010_18" x1="1.98344" y1="51.9834" x2="20.477" y2="70.477" gradientUnits="userSpaceOnUse">
<stop stop-color="white" stop-opacity="0"/>
<stop offset="0.244792" stop-color="#EC3C05" stop-opacity="0.3"/>
<stop offset="0.583333" stop-color="#EC3C05"/>
</linearGradient>
<linearGradient id="paint1_linear_501010_18" x1="17.431" y1="67.2145" x2="35.2718" y2="85.0554" gradientUnits="userSpaceOnUse">
<stop stop-color="#EC3C05"/>
<stop offset="0.479167" stop-color="#7B1F03"/>
<stop offset="1"/>
</linearGradient>
<linearGradient id="paint2_linear_501010_18" x1="32.7712" y1="52.3109" x2="50.0681" y2="69.6078" gradientUnits="userSpaceOnUse">
<stop stop-color="#7A1F02"/>
<stop offset="0.53125"/>
<stop offset="1" stop-color="#007EB4"/>
</linearGradient>
<linearGradient id="paint3_linear_501010_18" x1="17.2145" y1="36.971" x2="35.4905" y2="55.247" gradientUnits="userSpaceOnUse">
<stop offset="0.00492678" stop-color="#EC3C05"/>
<stop offset="0.9999"/>
<stop offset="1" stop-color="#ED4E4E" stop-opacity="0"/>
</linearGradient>
</defs>
</svg>
