<svg aria-hidden="true" style="position: absolute; width: 0; height: 0; overflow: hidden;" version="1.1" xmlns="http://www.w3.org/2000/svg" xmlns:xlink="http://www.w3.org/1999/xlink">
<defs>
<symbol id="icon-applepay" viewBox="0 0 32 32">
<path fill="#757575" style="fill: var(--color1, #757575)" d="M5.851 11.045c-0.376 0.449-0.976 0.803-1.576 0.752-0.075-0.607 0.219-1.251 0.563-1.649 0.376-0.461 1.032-0.788 1.563-0.815 0.063 0.632-0.181 1.251-0.549 1.712h-0.001zM6.393 11.917c-0.868-0.051-1.613 0.5-2.024 0.5-0.42 0-1.051-0.475-1.739-0.461-0.893 0.013-1.724 0.524-2.18 1.34-0.939 1.629-0.244 4.044 0.661 5.371 0.444 0.657 0.976 1.377 1.676 1.352 0.661-0.025 0.924-0.436 1.724-0.436 0.807 0 1.037 0.436 1.739 0.424 0.724-0.013 1.18-0.657 1.624-1.315 0.507-0.747 0.713-1.472 0.725-1.511-0.013-0.013-1.4-0.549-1.413-2.167-0.012-1.353 1.093-1.997 1.144-2.035-0.624-0.936-1.6-1.037-1.937-1.063v0.001zM11.413 10.085v9.852h1.513v-3.368h2.093c1.912 0 3.256-1.328 3.256-3.248s-1.319-3.236-3.205-3.236h-3.657zM12.927 11.375h1.744c1.312 0 2.061 0.707 2.061 1.952s-0.749 1.96-2.068 1.96h-1.739l0.002-3.912zM21.039 20.012c0.951 0 1.832-0.485 2.232-1.257h0.031v1.183h1.4v-4.904c0-1.421-1.125-2.339-2.856-2.339-1.607 0-2.793 0.929-2.837 2.205h1.363c0.112-0.607 0.668-1.004 1.431-1.004 0.925 0 1.444 0.436 1.444 1.239v0.543l-1.888 0.115c-1.756 0.107-2.707 0.833-2.707 2.097 0 1.276 0.981 2.123 2.388 2.123l-0.001-0.001zM21.445 18.844c-0.807 0-1.32-0.392-1.32-0.992 0-0.62 0.495-0.98 1.439-1.037l1.68-0.107v0.556c0 0.923-0.773 1.58-1.799 1.58zM26.571 22.617c1.475 0 2.168-0.569 2.773-2.295l2.656-7.533h-1.537l-1.781 5.82h-0.031l-1.781-5.82h-1.581l2.561 7.173-0.137 0.436c-0.231 0.739-0.605 1.023-1.275 1.023-0.119 0-0.349-0.013-0.444-0.025v1.183c0.088 0.025 0.463 0.037 0.577 0.039v-0.001z"></path>
</symbol>
<symbol id="icon-effective" viewBox="0 0 37 32">
<path fill="#ec3c05" style="fill: var(--color2, #ec3c05)" d="M35.368 8.345c-1.997 1.181-3.072 1.663-5.142 1.554-0.779-0.009-1.191-0.346-1.962-0.273-0.717 0.027-1.084 0.3-1.801 0.545-1.102 0.346-1.702 0.655-2.858 1.018-0.734 0.209-1.2 0.218-1.962 0.482-0.654 0.282-0.34 0.055-0.797 0.59-0.591 0.664-0.448 1.182-1.003 2.317-0.689 1.491-0.61 1.69-0.215 1.872-0.26 0.763-0.322 1.273-0.26 2.099 0.071 0.627-0.188 1.063 0.475 1.563 0.905 0.682 2.804 2.281 3.288 2.308 0.725-0.027 2.84 0.055 3.915-0.699 0.242-0.154 0.314-0.309 0.107 0.273-0.044 0.072-2.678 2.154-2.965 2.144-2.029 0.066-2.418 0.162-2.456 0.209-0.233-0.092-1.787-1.973-2.74-1.282-0.368 0.228-0.538 0.446-0.682 0.855 0.126 0.263 0.717 0.682 1.263 1.027 0.788 0.509 0.86 1.044 1.648 1.236 0.958 0.217 1.98 0.072 2.588 0.154 0.234 0.064 2.347-0.563 3.664-1.281 1.218-0.636-1.675 1.227-2.383 2.145-2.132 0.682-1.531 0.709-2.544 0.918-0.94 0.218-0.896 0.164-1.541 0.372-0.663 0.164-1.209 1.081-0.582 1.563 0.376 0.318 1.55-0.127 2.705-0.164 0.511-0.008 2.598-0.981 3.072-1.236 1.183-0.645 2.051-1.536 2.75-2.045 0.967-0.681-1.093 1.882-1.962 2.954-0.251 0.346-0.367 0.418-0.68 0.863-0.519 0.682 0.143 1.718 0.474 1.554 0.385-0.145 0.636-0.927 1.057-1.181 0.215-0.118 0.788-0.973 1.326-1.554 0.394-0.454 0.681-0.654 1.057-1.127 0.636-0.8 0.77-1.409 1.326-2.263 0.34-0.446 0.582-0.581 0.895-1.127 1.658-3.181 1.174-4.608 2.76-6.88 0.484-0.673 1.030-0.837 1.801-1.236 0.716-5.299-1.657-8.261-1.639-8.27zM27.682 16.779c-0.377 1.336-0.34 1.49-1.057 1.99-0.869 0.673-0.914 0.164-2.911 1.291 0 0-0.825-0.872-2.123-1.291 0.009 0.018-0.349-1.69-1.057-2.263 1.684-1.3 1.639-2.399 1.908-2.363 0.6 0.055 1.559 0.364 3.333-0.318 1.022 1.972 2.258 1.872 1.908 2.954z"></path>
<path fill="#000" style="fill: var(--color3, #000)" d="M17.569 7.108c-0.788-0.536-0.869-1.072-1.648-1.245-0.958-0.236-1.989-0.091-2.589-0.209-0.233-0.027-2.347 0.6-3.655 1.291-1.236 0.664 1.666-1.2 2.383-2.154 2.123-0.645 1.514-0.673 2.544-0.909 0.932-0.191 0.887-0.136 1.532-0.327 0.654-0.182 1.209-1.091 0.582-1.609-0.385-0.291-1.55 0.155-2.697 0.164-0.519 0.037-2.607 1.010-3.082 1.282-1.183 0.627-2.051 1.518-2.75 1.99-0.976 0.718 1.093-1.836 1.962-2.899 0.251-0.364 0.367-0.436 0.689-0.863 0.502-0.7-0.152-1.736-0.474-1.609-0.394 0.182-0.645 0.963-1.12 1.236-0.17 0.1-0.744 0.954-1.272 1.554-0.394 0.436-0.681 0.636-1.058 1.136-0.645 0.772-0.77 1.381-1.326 2.199-0.34 0.491-0.591 0.618-0.896 1.181-1.657 3.163-1.182 4.59-2.759 6.825-0.484 0.718-1.030 0.872-1.801 1.291-0.717 5.289 1.648 8.243 1.639 8.225 1.998-1.154 3.064-1.636 5.142-1.563 0.78 0.045 1.192 0.381 1.962 0.326 0.717-0.045 1.084-0.318 1.801-0.536 1.102-0.372 1.702-0.682 2.804-1.028 0.789-0.228 1.254-0.236 2.016-0.536 0.654-0.246 0.34-0.018 0.797-0.537 0.582-0.682 0.448-1.2 0.95-2.309 0.744-1.517 0.663-1.717 0.268-1.881 0.251-0.782 0.323-1.281 0.26-2.099-0.081-0.636 0.188-1.082-0.474-1.554-0.905-0.709-2.804-2.308-3.279-2.317-0.735 0.009-2.849-0.073-3.924 0.645-0.241 0.191-0.313 0.346-0.107-0.209 0.045-0.1 2.679-2.181 2.965-2.208 1.879-0.041 2.352-0.119 2.441-0.162 0.186 0.005 1.784 1.976 2.755 1.289 0.358-0.245 0.538-0.463 0.69-0.854-0.134-0.282-0.726-0.7-1.273-1.018zM10.518 13.234c0.86-0.645 0.913-0.136 2.911-1.236 0-0.027 0.824 0.845 2.123 1.236-0.009 0.009 0.349 1.717 1.057 2.308-1.684 1.282-1.639 2.381-1.908 2.363-0.601-0.073-1.559-0.382-3.332 0.273-1.030-1.945-2.258-1.836-1.908-2.963 0.376-1.291 0.332-1.454 1.058-1.981z"></path>
</symbol>
<symbol id="icon-envelope" viewBox="0 0 43 32">
<path fill="#757575" style="fill: var(--color1, #757575)" d="M38.667 0h-34.667c-2.206 0-4 1.794-4 4v24c0 2.206 1.794 4 4 4h34.667c2.206 0 4-1.794 4-4v-24c0-2.206-1.794-4-4-4zM38.667 2.667c0.181 0 0.353 0.038 0.511 0.103l-17.844 15.466-17.844-15.466c0.158-0.066 0.33-0.103 0.511-0.103h34.667zM38.667 29.333h-34.667c-0.736 0-1.333-0.598-1.333-1.333v-22.413l17.793 15.421c0.251 0.217 0.563 0.326 0.874 0.326s0.622-0.108 0.874-0.326l17.793-15.421v22.413c0 0.736-0.598 1.333-1.333 1.333z"></path>
</symbol>
<symbol id="icon-facebook" viewBox="0 0 32 32">
<path fill="#fff" style="fill: var(--color4, #fff)" d="M32 16c0 4.418-1.791 8.418-4.686 11.314s-6.895 4.686-11.314 4.686-8.418-1.791-11.314-4.686c-2.895-2.895-4.686-6.895-4.686-11.314s1.791-8.418 4.686-11.314 6.895-4.686 11.314-4.686c4.418 0 8.418 1.791 11.314 4.686s4.686 6.895 4.686 11.314z"></path>
<path fill="#757575" style="fill: var(--color1, #757575)" d="M18.422 11.142h1.328v-2.313c-0.229-0.031-1.017-0.102-1.935-0.102-1.915 0-3.226 1.204-3.226 3.418v2.037h-2.113v2.585h2.113v6.505h2.59v-6.505h2.027l0.322-2.585h-2.35v-1.781c0.001-0.747 0.202-1.259 1.243-1.259z"></path>
</symbol>
<symbol id="icon-favicon" viewBox="0 0 23 32">
<path d="M0.78 20.293l5.094-5.094 5.094 5.094-5.094 5.094-5.094-5.094z"></path>
<path d="M6.724 26.236l5.094-5.094 5.094 5.094-5.094 5.094-5.094-5.094z"></path>
<path d="M12.667 20.293l5.094-5.094 5.094 5.094-5.094 5.094-5.094-5.094z"></path>
<path d="M6.724 14.349l5.094-5.094 5.094 5.094-5.094 5.094-5.094-5.094z"></path>
<path d="M0.814 5.073c-0.036 0-0.067-0.011-0.093-0.033-0.022-0.025-0.033-0.056-0.033-0.093v-2.278h-0.464c-0.036 0-0.067-0.011-0.093-0.033-0.022-0.026-0.033-0.056-0.033-0.093v-0.186c0-0.036 0.011-0.066 0.033-0.087 0.025-0.026 0.056-0.038 0.093-0.038h0.464v-0.273c0-0.186 0.031-0.348 0.093-0.486 0.062-0.142 0.16-0.251 0.295-0.328 0.138-0.077 0.322-0.115 0.552-0.115h0.328c0.036 0 0.066 0.013 0.087 0.038 0.022 0.022 0.033 0.051 0.033 0.087v0.186c0 0.036-0.011 0.067-0.033 0.093-0.022 0.022-0.051 0.033-0.087 0.033h-0.317c-0.171 0-0.288 0.046-0.35 0.137-0.062 0.087-0.093 0.215-0.093 0.382v0.246h0.705c0.036 0 0.066 0.013 0.087 0.038 0.022 0.022 0.033 0.051 0.033 0.087v0.186c0 0.036-0.011 0.067-0.033 0.093-0.022 0.022-0.051 0.033-0.087 0.033h-0.705v2.278c0 0.036-0.013 0.067-0.038 0.093-0.022 0.022-0.051 0.033-0.087 0.033h-0.257zM3.371 5.128c-0.182 0-0.348-0.036-0.497-0.109s-0.27-0.171-0.361-0.295c-0.091-0.124-0.137-0.264-0.137-0.421 0-0.251 0.102-0.452 0.306-0.601s0.47-0.248 0.798-0.295l0.814-0.115v-0.158c0-0.175-0.051-0.311-0.153-0.41-0.098-0.098-0.26-0.147-0.486-0.147-0.164 0-0.297 0.033-0.399 0.098-0.098 0.066-0.168 0.149-0.208 0.251-0.022 0.055-0.060 0.082-0.115 0.082h-0.246c-0.040 0-0.071-0.011-0.093-0.033-0.018-0.026-0.027-0.055-0.027-0.087 0-0.055 0.020-0.122 0.060-0.202 0.044-0.080 0.109-0.158 0.197-0.235s0.199-0.14 0.333-0.191c0.138-0.055 0.306-0.082 0.503-0.082 0.219 0 0.402 0.029 0.552 0.087 0.149 0.055 0.266 0.129 0.35 0.224 0.087 0.095 0.149 0.202 0.186 0.322 0.040 0.12 0.060 0.242 0.060 0.366v1.77c0 0.036-0.013 0.067-0.038 0.093-0.022 0.022-0.051 0.033-0.087 0.033h-0.251c-0.040 0-0.071-0.011-0.093-0.033-0.022-0.025-0.033-0.056-0.033-0.093v-0.235c-0.047 0.066-0.111 0.131-0.191 0.197-0.080 0.062-0.18 0.115-0.3 0.158-0.12 0.040-0.268 0.060-0.443 0.060zM3.485 4.718c0.149 0 0.286-0.031 0.41-0.093 0.124-0.066 0.22-0.166 0.29-0.301 0.073-0.135 0.109-0.304 0.109-0.508v-0.153l-0.634 0.093c-0.259 0.036-0.453 0.098-0.585 0.186-0.131 0.084-0.197 0.191-0.197 0.322 0 0.102 0.029 0.188 0.087 0.257 0.062 0.066 0.138 0.115 0.229 0.147 0.095 0.033 0.191 0.049 0.29 0.049zM6.638 5.073c-0.055 0-0.098-0.013-0.131-0.038-0.029-0.025-0.053-0.058-0.071-0.098l-1.011-2.535c-0.007-0.018-0.011-0.036-0.011-0.055 0-0.033 0.011-0.060 0.033-0.082s0.049-0.033 0.082-0.033h0.262c0.040 0 0.071 0.011 0.093 0.033s0.035 0.042 0.038 0.060l0.836 2.153 0.83-2.153c0.007-0.018 0.020-0.038 0.038-0.060 0.022-0.022 0.053-0.033 0.093-0.033h0.268c0.029 0 0.055 0.011 0.077 0.033 0.025 0.022 0.038 0.049 0.038 0.082 0 0.018-0.004 0.036-0.011 0.055l-1.016 2.535c-0.015 0.040-0.038 0.073-0.071 0.098-0.029 0.025-0.073 0.038-0.131 0.038h-0.235zM8.909 5.073c-0.036 0-0.067-0.011-0.093-0.033-0.022-0.025-0.033-0.056-0.033-0.093v-2.59c0-0.036 0.011-0.066 0.033-0.087 0.025-0.026 0.056-0.038 0.093-0.038h0.262c0.036 0 0.066 0.013 0.087 0.038 0.022 0.022 0.033 0.051 0.033 0.087v2.59c0 0.036-0.011 0.067-0.033 0.093-0.022 0.022-0.051 0.033-0.087 0.033h-0.262zM8.865 1.702c-0.036 0-0.067-0.011-0.093-0.033-0.022-0.026-0.033-0.056-0.033-0.093v-0.295c0-0.036 0.011-0.066 0.033-0.087 0.025-0.026 0.056-0.038 0.093-0.038h0.344c0.036 0 0.066 0.013 0.087 0.038 0.025 0.022 0.038 0.051 0.038 0.087v0.295c0 0.036-0.013 0.067-0.038 0.093-0.022 0.022-0.051 0.033-0.087 0.033h-0.344zM11.374 5.128c-0.259 0-0.483-0.049-0.672-0.147-0.186-0.102-0.33-0.246-0.432-0.432-0.102-0.189-0.157-0.415-0.164-0.677-0.004-0.055-0.005-0.127-0.005-0.219s0.002-0.164 0.005-0.219c0.007-0.262 0.062-0.486 0.164-0.672 0.102-0.189 0.246-0.333 0.432-0.432 0.189-0.102 0.413-0.153 0.672-0.153 0.211 0 0.392 0.029 0.541 0.087 0.153 0.058 0.279 0.133 0.377 0.224s0.171 0.189 0.219 0.295c0.051 0.106 0.078 0.206 0.082 0.3 0.004 0.036-0.007 0.066-0.033 0.087s-0.056 0.033-0.093 0.033h-0.262c-0.036 0-0.064-0.007-0.082-0.022-0.018-0.018-0.036-0.047-0.055-0.087-0.066-0.178-0.155-0.304-0.268-0.377s-0.253-0.109-0.421-0.109c-0.219 0-0.397 0.067-0.535 0.202-0.135 0.135-0.208 0.351-0.219 0.65-0.004 0.131-0.004 0.259 0 0.382 0.011 0.302 0.084 0.521 0.219 0.656 0.138 0.131 0.317 0.197 0.535 0.197 0.168 0 0.308-0.036 0.421-0.109s0.202-0.199 0.268-0.377c0.018-0.040 0.036-0.067 0.055-0.082 0.018-0.018 0.046-0.027 0.082-0.027h0.262c0.036 0 0.067 0.011 0.093 0.033s0.036 0.051 0.033 0.087c-0.004 0.077-0.020 0.155-0.049 0.235s-0.076 0.162-0.142 0.246c-0.062 0.080-0.14 0.153-0.235 0.219-0.095 0.062-0.209 0.113-0.344 0.153-0.131 0.036-0.28 0.055-0.448 0.055zM14.514 5.128c-0.277 0-0.508-0.053-0.694-0.158s-0.328-0.251-0.426-0.437c-0.098-0.189-0.153-0.404-0.164-0.645-0.004-0.062-0.005-0.14-0.005-0.235 0-0.098 0.002-0.177 0.005-0.235 0.011-0.244 0.066-0.459 0.164-0.645 0.102-0.186 0.246-0.331 0.432-0.437s0.415-0.158 0.688-0.158c0.273 0 0.503 0.053 0.688 0.158s0.328 0.251 0.426 0.437c0.102 0.186 0.158 0.401 0.169 0.645 0.004 0.058 0.005 0.137 0.005 0.235 0 0.095-0.002 0.173-0.005 0.235-0.011 0.24-0.066 0.455-0.164 0.645-0.098 0.186-0.24 0.331-0.426 0.437s-0.417 0.158-0.694 0.158zM14.514 4.707c0.226 0 0.406-0.071 0.541-0.213 0.135-0.146 0.208-0.357 0.219-0.634 0.004-0.055 0.005-0.124 0.005-0.208s-0.002-0.153-0.005-0.208c-0.011-0.277-0.084-0.486-0.219-0.628-0.135-0.146-0.315-0.219-0.541-0.219s-0.408 0.073-0.546 0.219c-0.135 0.142-0.206 0.351-0.213 0.628-0.004 0.055-0.005 0.124-0.005 0.208s0.002 0.153 0.005 0.208c0.007 0.277 0.078 0.488 0.213 0.634 0.138 0.142 0.321 0.213 0.546 0.213zM16.722 5.073c-0.036 0-0.067-0.011-0.093-0.033-0.022-0.025-0.033-0.056-0.033-0.093v-2.59c0-0.036 0.011-0.066 0.033-0.087 0.025-0.026 0.056-0.038 0.093-0.038h0.257c0.036 0 0.066 0.013 0.087 0.038 0.025 0.022 0.038 0.051 0.038 0.087v0.24c0.095-0.124 0.213-0.224 0.355-0.3 0.146-0.080 0.331-0.12 0.557-0.12 0.237 0 0.437 0.053 0.601 0.158 0.168 0.102 0.293 0.246 0.377 0.432 0.084 0.182 0.126 0.395 0.126 0.639v1.541c0 0.036-0.011 0.067-0.033 0.093-0.022 0.022-0.051 0.033-0.087 0.033h-0.273c-0.036 0-0.067-0.011-0.093-0.033-0.022-0.025-0.033-0.056-0.033-0.093v-1.513c0-0.255-0.062-0.453-0.186-0.595-0.124-0.146-0.306-0.219-0.546-0.219-0.226 0-0.408 0.073-0.546 0.219-0.135 0.142-0.202 0.341-0.202 0.595v1.513c0 0.036-0.013 0.067-0.038 0.093-0.022 0.022-0.051 0.033-0.087 0.033h-0.273z"></path>
</symbol>
<symbol id="icon-googlepay" viewBox="0 0 32 32">
<path fill="#757575" style="fill: var(--color1, #757575)" d="M32 13.333l-4.179 9.333h-1.291l1.551-3.267-2.748-6.067h1.36l1.987 4.653h0.027l1.931-4.653 1.362 0.001zM14.644 16.221v3.779h-1.311v-9.333h3.476c0.025-0.001 0.053-0.001 0.082-0.001 0.831 0 1.59 0.306 2.171 0.812l-0.004-0.003c0.611 0.503 0.953 1.22 0.941 1.971 0 0.009 0 0.020 0 0.030 0 0.788-0.366 1.49-0.937 1.946l-0.005 0.004c-0.607 0.531-1.357 0.795-2.249 0.795h-2.164zM14.641 11.816v3.259h2.197c0.487 0.013 0.957-0.163 1.297-0.483 0.336-0.3 0.527-0.711 0.527-1.141s-0.191-0.84-0.527-1.14c-0.321-0.307-0.757-0.496-1.237-0.496-0.021 0-0.043 0-0.064 0.001h-2.193zM22.629 13.333c0.836 0 1.496 0.232 1.98 0.696 0.483 0.464 0.724 1.101 0.724 1.909v3.857h-1.081v-0.869h-0.049c-0.468 0.716-1.091 1.073-1.867 1.073-0.664 0-1.219-0.204-1.667-0.613-0.412-0.366-0.67-0.898-0.67-1.489 0-0.015 0-0.031 0.001-0.046v0.002c0-0.647 0.236-1.161 0.707-1.544s1.1-0.573 1.887-0.575c0.671 0 1.224 0.128 1.657 0.383v-0.268c0-0.004 0-0.009 0-0.014 0-0.408-0.18-0.775-0.465-1.024l-0.002-0.001c-0.28-0.266-0.66-0.429-1.078-0.429-0.005 0-0.009 0-0.014 0h0.001c-0.632 0-1.132 0.277-1.499 0.831l-0.996-0.651c0.547-0.817 1.357-1.227 2.431-1.227v-0.001zM21.167 17.88c0 0.003 0 0.006 0 0.009 0 0.308 0.147 0.582 0.374 0.756l0.002 0.002c0.249 0.204 0.56 0.312 0.879 0.307 0.476-0.001 0.933-0.2 1.271-0.549 0.346-0.32 0.563-0.777 0.563-1.284 0-0.002 0-0.004 0-0.005-0.353-0.293-0.844-0.439-1.475-0.439-0.46 0-0.843 0.116-1.149 0.347-0.309 0.232-0.464 0.516-0.464 0.857l-0.001-0.001zM5.441 10.667c0.020 0 0.043 0 0.067 0 1.379 0 2.635 0.528 3.577 1.393l-0.004-0.003-1.552 1.523c-0.532-0.496-1.248-0.8-2.035-0.8-0.019 0-0.037 0-0.056 0.001h0.003c-1.411 0.009-2.607 0.916-3.048 2.177l-0.007 0.023c-0.108 0.304-0.171 0.656-0.171 1.021s0.063 0.717 0.178 1.043l-0.007-0.022c0.447 1.284 1.644 2.191 3.054 2.2h0.001c0.735 0 1.364-0.184 1.853-0.508 0.572-0.373 0.964-0.96 1.085-1.623h-2.939v-2.053h5.132c0.063 0.359 0.093 0.72 0.093 1.084 0 1.623-0.592 2.996-1.619 3.924-0.901 0.816-2.139 1.288-3.607 1.288-0.007 0-0.014 0-0.022 0-2.093 0-3.91-1.179-4.825-2.909l-0.014-0.030c-0.365-0.696-0.579-1.52-0.579-2.395s0.214-1.699 0.593-2.424l-0.014 0.029c0.929-1.76 2.746-2.939 4.839-2.939 0.008 0 0.016 0 0.024 0v0z"></path>
</symbol>
<symbol id="icon-innovation" viewBox="0 0 31 32">
<path fill="#ec3c05" style="fill: var(--color2, #ec3c05)" d="M18.698 2.365l-2.221-1.903c-0.244-0.211-0.608-0.211-0.852 0l-2.293 1.966c-0.209 0.178-0.284 0.467-0.188 0.725s0.34 0.428 0.614 0.428h0.655v1.31c0 0.362 0.293 0.655 0.655 0.655h1.966c0.362 0 0.655-0.293 0.655-0.655v-1.31h0.655c0.004 0.001 0.010 0.001 0.013 0 0.362 0 0.655-0.293 0.655-0.655 0-0.237-0.126-0.444-0.314-0.559z"></path>
<path fill="#ec3c05" style="fill: var(--color2, #ec3c05)" d="M13.417 29.691l2.221 1.903c0.244 0.211 0.608 0.211 0.852 0l2.293-1.966c0.209-0.178 0.283-0.467 0.188-0.724s-0.34-0.428-0.614-0.428h-0.655v-1.31c0-0.362-0.293-0.655-0.655-0.655h-1.966c-0.362 0-0.655 0.293-0.655 0.655v1.31h-0.655c-0.005-0.001-0.010-0.001-0.013 0-0.362 0-0.655 0.293-0.655 0.655 0 0.237 0.126 0.445 0.314 0.559z"></path>
<path fill="#ec3c05" style="fill: var(--color2, #ec3c05)" d="M29.387 18.99l1.903-2.221c0.211-0.244 0.211-0.608 0-0.852l-1.966-2.293c-0.178-0.209-0.467-0.283-0.724-0.188s-0.428 0.34-0.428 0.614v0.655h-1.31c-0.362 0-0.655 0.293-0.655 0.655v1.966c0 0.362 0.293 0.655 0.655 0.655h1.31v0.655c-0.001 0.005-0.001 0.010 0 0.013 0 0.362 0.293 0.655 0.655 0.655 0.237 0 0.445-0.125 0.559-0.314z"></path>
<path fill="#ec3c05" style="fill: var(--color2, #ec3c05)" d="M2.061 13.708l-1.903 2.221c-0.211 0.244-0.211 0.608 0 0.852l1.966 2.293c0.178 0.209 0.467 0.283 0.724 0.188s0.428-0.34 0.428-0.614v-0.655h1.31c0.362 0 0.655-0.293 0.655-0.655v-1.966c0-0.362-0.293-0.655-0.655-0.655h-1.31v-0.655c0.001-0.005 0.001-0.010 0-0.013 0-0.362-0.293-0.655-0.655-0.655-0.237-0-0.444 0.126-0.559 0.314z"></path>
<path fill="#000" style="fill: var(--color3, #000)" d="M21.601 25.042l-1.276-5.104 1.286-7.068c0.065-0.356-0.171-0.697-0.528-0.761-0.355-0.069-0.697 0.171-0.761 0.527l-1.213 6.668h-4.039c-0.362 0-0.655 0.293-0.655 0.655s0.293 0.655 0.655 0.655h0.471l-1.107 4.428c-0.088 0.35 0.126 0.706 0.477 0.794 0.053 0.013 0.107 0.019 0.159 0.019 0.294 0 0.56-0.198 0.635-0.497l1.186-4.745h2.254l1.186 4.745c0.074 0.298 0.342 0.497 0.635 0.497 0.052 0 0.106-0.007 0.159-0.019 0.351-0.087 0.565-0.443 0.476-0.794z"></path>
<path fill="#000" style="fill: var(--color3, #000)" d="M18.561 18.648l0.476-2.621h-12.486v9.828h1.966v-7.207h10.044z"></path>
<path fill="#000" style="fill: var(--color3, #000)" d="M21.701 16.028l-0.477 2.621h1.707v7.207h1.966v-9.828h-3.195z"></path>
<path fill="#000" style="fill: var(--color3, #000)" d="M15.069 12.752v-5.897h-7.207v5.897h2.621v0.655c0 0.596-0.299 0.655-1.31 0.655-1.346 0-1.31 0.714-1.31 1.31h7.207c0-0.596 0-1.31-1.31-1.31-1.011 0-1.31-0.059-1.31-0.655v-0.655h2.621zM9.172 11.442v-3.276h4.586v3.276h-4.586z"></path>
</symbol>
<symbol id="icon-insta" viewBox="0 0 32 32">
<path fill="#fff" style="fill: var(--color4, #fff)" d="M32 16c0 4.418-1.791 8.418-4.686 11.314s-6.895 4.686-11.314 4.686-8.418-1.791-11.314-4.686c-2.895-2.895-4.686-6.895-4.686-11.314s1.791-8.418 4.686-11.314 6.895-4.686 11.314-4.686c4.418 0 8.418 1.791 11.314 4.686s4.686 6.895 4.686 11.314z"></path>
<path fill="#757575" style="fill: var(--color1, #757575)" d="M23.258 13.004c-0.034-0.773-0.159-1.304-0.338-1.765-0.185-0.489-0.469-0.926-0.841-1.29-0.364-0.369-0.804-0.656-1.287-0.838-0.463-0.179-0.992-0.304-1.764-0.338-0.779-0.037-1.026-0.046-3.001-0.046s-2.222 0.009-2.998 0.043c-0.773 0.034-1.304 0.159-1.764 0.338-0.489 0.185-0.926 0.469-1.29 0.841-0.369 0.364-0.656 0.804-0.838 1.287-0.179 0.463-0.304 0.992-0.338 1.764-0.037 0.779-0.045 1.026-0.045 3.001s0.008 2.222 0.043 2.998c0.034 0.773 0.159 1.304 0.338 1.765 0.185 0.489 0.472 0.926 0.841 1.29 0.364 0.369 0.804 0.656 1.287 0.838 0.463 0.179 0.992 0.304 1.765 0.338 0.776 0.034 1.023 0.043 2.998 0.043s2.222-0.008 2.998-0.043c0.773-0.034 1.304-0.159 1.764-0.338 0.978-0.378 1.75-1.151 2.128-2.128 0.179-0.463 0.304-0.992 0.338-1.765 0.034-0.776 0.043-1.023 0.043-2.998s-0.003-2.222-0.037-2.998zM21.949 18.942c-0.031 0.71-0.151 1.094-0.25 1.35-0.244 0.634-0.747 1.137-1.381 1.381-0.256 0.099-0.642 0.219-1.35 0.25-0.767 0.034-0.997 0.043-2.938 0.043s-2.174-0.008-2.938-0.043c-0.71-0.031-1.094-0.15-1.35-0.25-0.315-0.116-0.602-0.301-0.835-0.543-0.242-0.236-0.426-0.52-0.543-0.835-0.099-0.256-0.219-0.642-0.25-1.35-0.034-0.767-0.043-0.997-0.043-2.938s0.008-2.174 0.043-2.938c0.031-0.71 0.151-1.094 0.25-1.35 0.117-0.315 0.301-0.602 0.546-0.835 0.236-0.242 0.52-0.426 0.835-0.543 0.256-0.099 0.642-0.219 1.35-0.25 0.767-0.034 0.997-0.043 2.938-0.043 1.944 0 2.174 0.008 2.938 0.043 0.71 0.031 1.094 0.151 1.35 0.25 0.315 0.116 0.602 0.301 0.835 0.543 0.241 0.236 0.426 0.52 0.543 0.835 0.099 0.256 0.219 0.642 0.25 1.35 0.034 0.767 0.043 0.997 0.043 2.938s-0.009 2.168-0.043 2.935z"></path>
<path fill="#757575" style="fill: var(--color1, #757575)" d="M16.027 12.265c-2.063 0-3.736 1.674-3.736 3.736s1.674 3.736 3.736 3.736c2.063 0 3.737-1.674 3.737-3.736s-1.674-3.736-3.737-3.736zM16.027 18.425c-1.338 0-2.424-1.085-2.424-2.424s1.086-2.424 2.424-2.424c1.338 0 2.424 1.085 2.424 2.424s-1.085 2.424-2.424 2.424z"></path>
<path fill="#757575" style="fill: var(--color1, #757575)" d="M20.784 12.117c0 0.482-0.391 0.872-0.872 0.872s-0.872-0.391-0.872-0.872c0-0.482 0.391-0.872 0.872-0.872s0.872 0.39 0.872 0.872z"></path>
</symbol>
<symbol id="icon-linkedin" viewBox="0 0 32 32">
<path fill="#fff" style="fill: var(--color4, #fff)" d="M32 16c0 4.418-1.791 8.418-4.686 11.314s-6.895 4.686-11.314 4.686-8.418-1.791-11.314-4.686c-2.895-2.895-4.686-6.895-4.686-11.314s1.791-8.418 4.686-11.314 6.895-4.686 11.314-4.686c4.418 0 8.418 1.791 11.314 4.686s4.686 6.895 4.686 11.314z"></path>
<path fill="#757575" style="fill: var(--color1, #757575)" d="M23.269 23.273v-0.001h0.004v-5.335c0-2.61-0.562-4.62-3.613-4.62-1.467 0-2.451 0.805-2.853 1.568h-0.042v-1.324h-2.893v9.711h3.012v-4.809c0-1.266 0.24-2.49 1.808-2.49 1.545 0 1.568 1.445 1.568 2.572v4.728h3.009z"></path>
<path fill="#757575" style="fill: var(--color1, #757575)" d="M8.967 13.562h3.016v9.711h-3.016v-9.711z"></path>
<path fill="#757575" style="fill: var(--color1, #757575)" d="M10.474 8.727c-0.964 0-1.747 0.782-1.747 1.747s0.782 1.763 1.747 1.763c0.964 0 1.747-0.799 1.747-1.763s-0.783-1.747-1.747-1.747v0z"></path>
</symbol>
<symbol id="icon-logo" viewBox="0 0 168 32">
<path fill="#ec3c05" style="fill: var(--color2, #ec3c05)" d="M40.74 23.73h5.376c1.792 0 2.688-0.928 2.688-2.784v-10.912c0-1.856-0.896-2.784-2.688-2.784h-5.376c-0.213 0-0.32 0.096-0.32 0.288v15.904c0 0.192 0.107 0.288 0.32 0.288zM38.084 25.33v-19.68c0-0.299 0.149-0.448 0.448-0.448h7.872c1.472 0 2.624 0.427 3.456 1.28 0.853 0.832 1.28 1.984 1.28 3.456v11.104c0 1.472-0.427 2.635-1.28 3.488-0.832 0.832-1.984 1.248-3.456 1.248h-7.872c-0.299 0-0.448-0.149-0.448-0.448zM63.673 25.778h-2.752c-1.472 0-2.635-0.416-3.488-1.248-0.832-0.832-1.248-1.995-1.248-3.488v-6.848c0-1.493 0.416-2.656 1.248-3.488 0.853-0.832 2.016-1.248 3.488-1.248h2.752c1.472 0 2.624 0.416 3.456 1.248 0.853 0.832 1.28 1.995 1.28 3.488v6.848c0 1.493-0.427 2.656-1.28 3.488-0.832 0.832-1.984 1.248-3.456 1.248zM61.177 23.73h2.24c1.792 0 2.688-0.917 2.688-2.752v-6.72c0-1.835-0.896-2.752-2.688-2.752h-2.24c-1.792 0-2.688 0.917-2.688 2.752v6.72c0 1.835 0.896 2.752 2.688 2.752zM75.513 25.778h-1.44c-0.299 0-0.448-0.149-0.448-0.448v-21.6c0-0.299 0.149-0.448 0.448-0.448h1.44c0.299 0 0.448 0.149 0.448 0.448v21.6c0 0.299-0.149 0.448-0.448 0.448z"></path>
<path fill="#000" style="fill: var(--color3, #000)" d="M89.679 25.778h-3.456c-1.472 0-2.635-0.416-3.488-1.248-0.832-0.832-1.248-1.995-1.248-3.488v-11.104c0-1.493 0.416-2.656 1.248-3.488 0.853-0.832 2.016-1.248 3.488-1.248h3.456c1.472 0 2.624 0.427 3.456 1.28 0.832 0.832 1.248 1.984 1.248 3.456v1.312c0 0.32-0.149 0.48-0.448 0.48h-1.44c-0.299 0-0.448-0.16-0.448-0.48v-1.216c0-1.856-0.885-2.784-2.656-2.784h-2.912c-1.771 0-2.656 0.928-2.656 2.784v10.912c0 1.856 0.885 2.784 2.656 2.784h2.912c1.771 0 2.656-0.928 2.656-2.784v-3.584c0-0.213-0.096-0.32-0.288-0.32h-3.168c-0.299 0-0.448-0.139-0.448-0.416v-1.184c0-0.299 0.149-0.448 0.448-0.448h5.152c0.427 0 0.64 0.224 0.64 0.672v5.376c0 1.493-0.416 2.656-1.248 3.488s-1.984 1.248-3.456 1.248zM106 25.778h-1.792c-1.451 0-2.581-0.416-3.392-1.248s-1.216-1.995-1.216-3.488v-11.136c0-0.299 0.149-0.448 0.448-0.448h1.44c0.299 0 0.448 0.149 0.448 0.448v11.040c0 1.856 0.885 2.784 2.656 2.784h1.824c0.96 0 1.696-0.256 2.208-0.768s0.768-1.237 0.768-2.176v-10.88c0-0.299 0.149-0.448 0.448-0.448h1.44c0.299 0 0.448 0.149 0.448 0.448v15.424c0 0.299-0.149 0.448-0.448 0.448h-1.44c-0.299 0-0.448-0.149-0.448-0.448v-1.248h-0.128c-0.533 1.131-1.621 1.696-3.264 1.696zM119.143 25.778h-1.44c-0.299 0-0.448-0.149-0.448-0.448v-21.6c0-0.299 0.149-0.448 0.448-0.448h1.44c0.299 0 0.448 0.149 0.448 0.448v21.6c0 0.299-0.149 0.448-0.448 0.448zM131.293 25.778h-1.888c-1.451 0-2.581-0.416-3.392-1.248s-1.216-1.995-1.216-3.488v-6.848c0-1.493 0.405-2.656 1.216-3.488s1.941-1.248 3.392-1.248h1.888c1.664 0 2.763 0.565 3.296 1.696h0.128v-7.424c0-0.299 0.139-0.448 0.416-0.448h1.472c0.277 0 0.416 0.149 0.416 0.448v21.6c0 0.299-0.139 0.448-0.416 0.448h-1.472c-0.277 0-0.416-0.149-0.416-0.448v-1.248h-0.128c-0.533 1.131-1.632 1.696-3.296 1.696zM134.717 20.786v-6.336c0-0.939-0.256-1.664-0.768-2.176s-1.248-0.768-2.208-0.768h-1.952c-1.771 0-2.656 0.928-2.656 2.784v6.656c0 1.856 0.885 2.784 2.656 2.784h1.952c0.96 0 1.696-0.256 2.208-0.768s0.768-1.237 0.768-2.176zM148.63 25.778h-1.792c-1.451 0-2.581-0.416-3.392-1.248s-1.216-1.995-1.216-3.488v-11.136c0-0.299 0.149-0.448 0.448-0.448h1.44c0.299 0 0.448 0.149 0.448 0.448v11.040c0 1.856 0.885 2.784 2.656 2.784h1.824c0.96 0 1.696-0.256 2.208-0.768s0.768-1.237 0.768-2.176v-10.88c0-0.299 0.149-0.448 0.448-0.448h1.44c0.299 0 0.448 0.149 0.448 0.448v15.424c0 0.299-0.149 0.448-0.448 0.448h-1.44c-0.299 0-0.448-0.149-0.448-0.448v-1.248h-0.128c-0.533 1.131-1.621 1.696-3.264 1.696zM161.612 25.778h-1.44c-0.299 0-0.448-0.149-0.448-0.448v-15.424c0-0.299 0.149-0.448 0.448-0.448h1.44c0.299 0 0.448 0.149 0.448 0.448v1.28h0.128c0.213-0.469 0.619-0.875 1.216-1.216s1.301-0.512 2.112-0.512h1.248c0.277 0 0.416 0.149 0.416 0.448v1.184c0 0.149-0.032 0.267-0.096 0.352-0.064 0.064-0.171 0.085-0.32 0.064h-1.728c-0.96 0-1.696 0.288-2.208 0.864s-0.768 1.365-0.768 2.368v10.592c0 0.299-0.149 0.448-0.448 0.448z"></path>
<path fill="#000" style="fill: var(--color3, #000)" d="M0.889 16l5.802-5.802 5.802 5.802-5.802 5.802-5.802-5.802z"></path>
<path fill="#000" style="fill: var(--color3, #000)" d="M7.658 22.769l5.802-5.802 5.802 5.802-5.802 5.802-5.802-5.802z"></path>
<path fill="#000" style="fill: var(--color3, #000)" d="M14.427 16l5.802-5.802 5.802 5.802-5.802 5.802-5.802-5.802z"></path>
<path fill="#000" style="fill: var(--color3, #000)" d="M7.658 9.231l5.802-5.802 5.802 5.802-5.802 5.802-5.802-5.802z"></path>
</symbol>
<symbol id="icon-logo-white" viewBox="0 0 179 32">
<path fill="#ec3c05" style="fill: var(--color2, #ec3c05)" d="M56.177 22.354h5.161c1.72 0 2.58-0.891 2.58-2.673v-10.476c0-1.782-0.86-2.673-2.58-2.673h-5.161c-0.205 0-0.307 0.092-0.307 0.276v15.268c0 0.184 0.102 0.276 0.307 0.276zM53.627 23.89v-18.893c0-0.287 0.143-0.43 0.43-0.43h7.557c1.413 0 2.519 0.41 3.318 1.229 0.819 0.799 1.229 1.905 1.229 3.318v10.66c0 1.413-0.41 2.529-1.229 3.348-0.799 0.799-1.905 1.198-3.318 1.198h-7.557c-0.287 0-0.43-0.143-0.43-0.43zM78.192 24.32h-2.642c-1.413 0-2.529-0.399-3.348-1.198-0.799-0.799-1.198-1.915-1.198-3.348v-6.574c0-1.434 0.399-2.55 1.198-3.348 0.819-0.799 1.935-1.198 3.348-1.198h2.642c1.413 0 2.519 0.399 3.318 1.198 0.819 0.799 1.229 1.915 1.229 3.348v6.574c0 1.434-0.41 2.55-1.229 3.348-0.799 0.799-1.905 1.198-3.318 1.198zM75.796 22.354h2.15c1.72 0 2.58-0.881 2.58-2.642v-6.451c0-1.761-0.86-2.642-2.58-2.642h-2.15c-1.72 0-2.58 0.881-2.58 2.642v6.451c0 1.761 0.86 2.642 2.58 2.642zM89.559 24.32h-1.382c-0.287 0-0.43-0.143-0.43-0.43v-20.736c0-0.287 0.143-0.43 0.43-0.43h1.382c0.287 0 0.43 0.143 0.43 0.43v20.736c0 0.287-0.143 0.43-0.43 0.43z"></path>
<path fill="#fff" style="fill: var(--color4, #fff)" d="M103.159 24.32h-3.318c-1.413 0-2.529-0.399-3.348-1.198-0.799-0.799-1.198-1.915-1.198-3.348v-10.66c0-1.434 0.399-2.55 1.198-3.348 0.819-0.799 1.935-1.198 3.348-1.198h3.318c1.413 0 2.519 0.41 3.318 1.229 0.799 0.799 1.198 1.905 1.198 3.318v1.26c0 0.307-0.143 0.461-0.43 0.461h-1.382c-0.287 0-0.43-0.154-0.43-0.461v-1.167c0-1.782-0.85-2.673-2.55-2.673h-2.796c-1.7 0-2.55 0.891-2.55 2.673v10.476c0 1.782 0.85 2.673 2.55 2.673h2.796c1.7 0 2.55-0.891 2.55-2.673v-3.441c0-0.205-0.092-0.307-0.276-0.307h-3.041c-0.287 0-0.43-0.133-0.43-0.399v-1.137c0-0.287 0.143-0.43 0.43-0.43h4.946c0.41 0 0.614 0.215 0.614 0.645v5.161c0 1.434-0.399 2.55-1.198 3.348s-1.905 1.198-3.318 1.198zM118.826 24.32h-1.72c-1.393 0-2.478-0.399-3.256-1.198s-1.167-1.915-1.167-3.348v-10.691c0-0.287 0.143-0.43 0.43-0.43h1.382c0.287 0 0.43 0.143 0.43 0.43v10.598c0 1.782 0.85 2.673 2.55 2.673h1.751c0.922 0 1.628-0.246 2.12-0.737s0.737-1.188 0.737-2.089v-10.445c0-0.287 0.143-0.43 0.43-0.43h1.382c0.287 0 0.43 0.143 0.43 0.43v14.807c0 0.287-0.143 0.43-0.43 0.43h-1.382c-0.287 0-0.43-0.143-0.43-0.43v-1.198h-0.123c-0.512 1.085-1.556 1.628-3.133 1.628zM131.443 24.32h-1.382c-0.287 0-0.43-0.143-0.43-0.43v-20.736c0-0.287 0.143-0.43 0.43-0.43h1.382c0.287 0 0.43 0.143 0.43 0.43v20.736c0 0.287-0.143 0.43-0.43 0.43zM143.108 24.32h-1.812c-1.393 0-2.478-0.399-3.256-1.198s-1.167-1.915-1.167-3.348v-6.574c0-1.434 0.389-2.55 1.167-3.348s1.864-1.198 3.256-1.198h1.812c1.597 0 2.652 0.543 3.164 1.628h0.123v-7.127c0-0.287 0.133-0.43 0.399-0.43h1.413c0.266 0 0.399 0.143 0.399 0.43v20.736c0 0.287-0.133 0.43-0.399 0.43h-1.413c-0.266 0-0.399-0.143-0.399-0.43v-1.198h-0.123c-0.512 1.085-1.567 1.628-3.164 1.628zM146.395 19.528v-6.083c0-0.901-0.246-1.597-0.737-2.089s-1.198-0.737-2.12-0.737h-1.874c-1.7 0-2.55 0.891-2.55 2.673v6.39c0 1.782 0.85 2.673 2.55 2.673h1.874c0.922 0 1.628-0.246 2.12-0.737s0.737-1.188 0.737-2.089zM159.752 24.32h-1.72c-1.393 0-2.478-0.399-3.256-1.198s-1.167-1.915-1.167-3.348v-10.691c0-0.287 0.143-0.43 0.43-0.43h1.382c0.287 0 0.43 0.143 0.43 0.43v10.598c0 1.782 0.85 2.673 2.55 2.673h1.751c0.922 0 1.628-0.246 2.12-0.737s0.737-1.188 0.737-2.089v-10.445c0-0.287 0.143-0.43 0.43-0.43h1.382c0.287 0 0.43 0.143 0.43 0.43v14.807c0 0.287-0.143 0.43-0.43 0.43h-1.382c-0.287 0-0.43-0.143-0.43-0.43v-1.198h-0.123c-0.512 1.085-1.556 1.628-3.133 1.628zM172.215 24.32h-1.382c-0.287 0-0.43-0.143-0.43-0.43v-14.807c0-0.287 0.143-0.43 0.43-0.43h1.382c0.287 0 0.43 0.143 0.43 0.43v1.229h0.123c0.205-0.451 0.594-0.84 1.167-1.167s1.249-0.492 2.028-0.492h1.198c0.266 0 0.399 0.143 0.399 0.43v1.137c0 0.143-0.031 0.256-0.092 0.338-0.061 0.061-0.164 0.082-0.307 0.061h-1.659c-0.922 0-1.628 0.276-2.12 0.829s-0.737 1.311-0.737 2.273v10.168c0 0.287-0.143 0.43-0.43 0.43z"></path>
<path fill="#000" style="fill: var(--color3, #000)" d="M1.067 16l6.962-6.962 6.962 6.962-6.962 6.962-6.962-6.962z"></path>
<path fill="#000" style="fill: var(--color3, #000)" d="M9.189 24.123l6.962-6.962 6.962 6.962-6.962 6.962-6.962-6.962z"></path>
<path fill="#000" style="fill: var(--color3, #000)" d="M17.312 16l6.962-6.962 6.962 6.962-6.962 6.962-6.962-6.962z"></path>
<path fill="#000" style="fill: var(--color3, #000)" d="M9.189 7.877l6.962-6.962 6.962 6.962-6.962 6.962-6.962-6.962z"></path>
</symbol>
<symbol id="icon-npm" viewBox="0 0 32 32">
<path fill="#757575" style="fill: var(--color1, #757575)" d="M0 9.779v10.667h8.888v1.776h7.112v-1.776h16v-10.667h-32zM8.888 18.664h-1.776v-5.333h-1.78v5.333h-3.552v-7.108h7.108v7.108zM14.221 18.664v1.781h-3.553v-8.889h7.112v7.109l-3.559-0.001zM30.223 18.664h-1.773v-5.333h-1.781v5.333h-1.78v-5.333h-1.773v5.333h-3.561v-7.108h10.669l-0.001 7.108zM14.22 13.333h1.78v3.556h-1.78v-3.556z"></path>
</symbol>
<symbol id="icon-planning" viewBox="0 0 30 32">
<path fill="#ec3c05" style="fill: var(--color2, #ec3c05)" d="M14.968 11.001c2.867 0 5.184-2.356 5.184-5.252-0-2.899-2.317-5.243-5.184-5.243s-5.184 2.344-5.184 5.243c-0 2.896 2.317 5.252 5.184 5.252z"></path>
<path fill="#000" style="fill: var(--color3, #000)" d="M24.202 24.658c1.429-1.289 2.276-2.891 2.276-4.625 0-4.263-5.114-7.72-11.422-7.72-0.030 0-0.059 0.001-0.088 0.002s-0.059-0.002-0.089-0.002c-6.308 0-11.422 3.456-11.422 7.72 0 1.735 0.847 3.336 2.276 4.625-3.486 0.858-5.733 2.202-5.733 3.713 0 2.592 3.717 4.621 14.879 3.092 0.030 0.005 0.059 0.008 0.089 0.013 0.030-0.005 0.058-0.009 0.088-0.013 11.163 1.528 14.879-0.5 14.879-3.092-0-1.511-2.247-2.854-5.734-3.713zM23.094 20.899c-0.039-0.002-0.079-0.006-0.118-0.006-1.124 0-2.035 0.911-2.035 2.035s0.911 2.034 2.035 2.034c0.039 0 0.079-0.004 0.118-0.006v2.168l-8.126 2.831-8.125-2.831v-2.168c0.039 0.002 0.078 0.006 0.118 0.006 1.124 0 2.035-0.911 2.035-2.034s-0.911-2.035-2.035-2.035c-0.040 0-0.079 0.004-0.118 0.006v-4.603l8.125 2.647 8.126-2.647v4.603z"></path>
</symbol>
<symbol id="icon-playstation" viewBox="0 0 32 32">
<path fill="#757575" style="fill: var(--color1, #757575)" d="M11.98 3.461v23.397l5.22 1.681v-19.623c0-0.92 0.405-1.535 1.059-1.321 0.848 0.241 1.013 1.085 1.013 2.007v7.835c3.255 1.591 5.816-0.003 5.816-4.204 0-4.316-1.501-6.233-5.917-7.769-1.743-0.597-4.971-1.581-7.188-2.003h-0.003zM18.188 25.117l8.395-3.033c0.953-0.344 1.101-0.833 0.328-1.091-0.781-0.256-2.183-0.185-3.143 0.164l-5.607 1.999v-3.18l0.32-0.113c0 0 1.601-0.56 3.884-0.82 2.261-0.24 5.047 0.039 7.249 0.881 2.464 0.801 2.721 1.963 2.101 2.763s-2.163 1.381-2.163 1.381l-11.392 4.143v-3.063l0.028-0.031zM2.411 24.8c-2.533-0.727-2.952-2.224-1.803-3.095 1.068-0.78 2.879-1.401 2.879-1.401l7.488-2.684v3.084l-5.367 1.963c-0.94 0.361-1.1 0.843-0.319 1.101 0.781 0.26 2.183 0.2 3.124-0.16l2.584-0.941v2.765c-0.161 0.039-0.341 0.059-0.521 0.097-2.584 0.441-5.327 0.261-8.049-0.639l-0.016-0.090z"></path>
</symbol>
<symbol id="icon-punctuality" viewBox="0 0 27 32">
<path fill="#000" style="fill: var(--color3, #000)" d="M18.548 6.492v1.874c0 0.524 0.416 0.951 0.928 0.951h5.434c0.516 0 0.929-0.426 0.929-0.951v-1.874h-7.291z"></path>
<path fill="#000" style="fill: var(--color3, #000)" d="M25.832 12.563h-2.781c-0.416 0-0.744 0.34-0.744 0.758v2.083c0 0.423 0.328 0.759 0.744 0.759h2.781c0.416 0 0.744-0.336 0.744-0.759v-2.083c0-0.419-0.328-0.758-0.744-0.758z"></path>
<path fill="#ec3c05" style="fill: var(--color2, #ec3c05)" d="M25.832 23.319h-2.781c-0.416 0-0.744 0.336-0.744 0.762v2.079c0 0.419 0.328 0.763 0.744 0.763h2.781c0.416 0 0.744-0.344 0.744-0.763v-2.079c0-0.426-0.328-0.762-0.744-0.762z"></path>
<path fill="#000" style="fill: var(--color3, #000)" d="M22.87 28.404h-19.312c-0.408 0-0.744 0.336-0.744 0.754v2.087c0 0.418 0.336 0.755 0.744 0.755h19.312c0.408 0 0.736-0.337 0.736-0.755v-2.087c0-0.418-0.328-0.754-0.736-0.754z"></path>
<path fill="#ec3c05" style="fill: var(--color2, #ec3c05)" d="M4.269 26.162v-2.083c0-0.422-0.336-0.758-0.744-0.758h-2.789c-0.404 0-0.732 0.336-0.732 0.758v2.083c0 0.418 0.328 0.763 0.732 0.763h2.789c0.408 0 0.745-0.345 0.745-0.763z"></path>
<path fill="#000" style="fill: var(--color3, #000)" d="M0.736 16.162h2.789c0.408 0 0.744-0.336 0.744-0.758v-2.083c0-0.419-0.336-0.759-0.744-0.759h-2.789c-0.408 0-0.736 0.34-0.736 0.759v2.083c0 0.422 0.328 0.758 0.736 0.758z"></path>
<path fill="#000" style="fill: var(--color3, #000)" d="M1.362 9.32h5.43c0.516 0 0.932-0.427 0.932-0.951v-1.873h-7.291v1.873c0 0.524 0.412 0.951 0.929 0.951z"></path>
<path fill="#ec3c05" style="fill: var(--color2, #ec3c05)" d="M20.259 12.563h-2.789c-0.408 0-0.736 0.34-0.736 0.758v2.083c0 0.423 0.328 0.759 0.736 0.759h2.789c0.408 0 0.737-0.336 0.737-0.759v-2.083c0-0.419-0.329-0.758-0.737-0.758z"></path>
<path fill="#ec3c05" style="fill: var(--color2, #ec3c05)" d="M23.816 20.805v-2.083c0-0.414-0.336-0.759-0.744-0.759h-2.789c-0.404 0-0.732 0.344-0.732 0.759v2.083c0 0.426 0.328 0.763 0.732 0.763h2.789c0.408 0 0.744-0.336 0.744-0.763z"></path>
<path fill="#000" style="fill: var(--color3, #000)" d="M17.469 26.923h2.789c0.408 0 0.737-0.345 0.737-0.763v-2.079c0-0.427-0.328-0.763-0.737-0.763h-2.789c-0.408 0-0.736 0.336-0.736 0.763v2.079c0 0.418 0.328 0.763 0.736 0.763z"></path>
<path fill="#000" style="fill: var(--color3, #000)" d="M18.235 20.805v-2.083c0-0.414-0.328-0.759-0.736-0.759h-2.789c-0.404 0-0.74 0.344-0.74 0.759v2.083c0 0.426 0.336 0.763 0.74 0.763h2.789c0.409 0 0.736-0.336 0.736-0.763z"></path>
<path fill="#ec3c05" style="fill: var(--color2, #ec3c05)" d="M11.897 26.923h2.781c0.408 0 0.744-0.345 0.744-0.763v-2.079c0-0.427-0.336-0.763-0.744-0.763h-2.781c-0.416 0-0.744 0.336-0.744 0.763v2.079c0 0.418 0.328 0.763 0.744 0.763z"></path>
<path fill="#000" style="fill: var(--color3, #000)" d="M14.679 16.162c0.408 0 0.744-0.336 0.744-0.758v-2.083c0-0.419-0.336-0.759-0.744-0.759h-2.781c-0.416 0-0.745 0.34-0.745 0.759v2.083c0 0.422 0.328 0.758 0.745 0.758h2.781z"></path>
<path fill="#ec3c05" style="fill: var(--color2, #ec3c05)" d="M12.663 20.805v-2.083c0-0.414-0.336-0.759-0.744-0.759h-2.789c-0.404 0-0.733 0.344-0.733 0.759v2.083c0 0.426 0.328 0.763 0.733 0.763h2.789c0.408 0 0.744-0.336 0.744-0.763z"></path>
<path fill="#000" style="fill: var(--color3, #000)" d="M6.356 26.923h2.789c0.408 0 0.744-0.345 0.744-0.763v-2.079c0-0.427-0.336-0.763-0.744-0.763h-2.789c-0.408 0-0.737 0.336-0.737 0.763v2.079c0 0.418 0.328 0.763 0.737 0.763z"></path>
<path fill="#ec3c05" style="fill: var(--color2, #ec3c05)" d="M9.107 16.162c0.408 0 0.736-0.336 0.736-0.758v-2.083c0-0.419-0.328-0.759-0.736-0.759h-2.789c-0.409 0-0.737 0.34-0.737 0.759v2.083c0 0.422 0.328 0.758 0.737 0.758h2.789z"></path>
<path fill="#000" style="fill: var(--color3, #000)" d="M2.815 18.723v2.083c0 0.422 0.336 0.758 0.744 0.758h2.789c0.404 0 0.733-0.337 0.733-0.758v-2.083c0-0.419-0.328-0.762-0.733-0.762h-2.789c-0.408 0-0.744 0.344-0.744 0.762z"></path>
<path fill="#000" style="fill: var(--color3, #000)" d="M7.724 5.748c0-0.541 0.444-1.472 5.418-1.488 4.962-0.016 5.406 0.947 5.406 1.488v0.156h7.291v-0.197c0-0.972-1.709-5.707-12.697-5.707-11 0-12.709 4.735-12.709 5.707v0.197h7.291v-0.156z"></path>
</symbol>
<symbol id="icon-rails" viewBox="0 0 32 32">
<path fill="#757575" style="fill: var(--color1, #757575)" d="M27.846 21.081v1.551h2.642c0.541 0 1.471-0.42 1.503-1.594v-0.6c0-1.003-0.776-1.594-1.503-1.594h-1.317v-0.72h2.61v-1.56h-2.505c-0.646 0-1.511 0.566-1.511 1.62v0.54c0 1.054 0.857 1.594 1.511 1.594 1.818 0.009-0.436 0 1.244 0v0.754l-2.674 0.009zM13.689 20.704c0 0 1.414-0.129 1.414-2.066s-1.713-2.117-1.713-2.117h-3.087v6.111h1.551v-1.474l1.341 1.474h2.295l-1.801-1.928zM13.091 19.452h-1.236v-1.397h1.244c0 0 0.347 0.137 0.347 0.694s-0.356 0.703-0.356 0.703h0.001zM18.933 16.564h-1.576c-1.123 0-1.503 1.080-1.503 1.594v4.474h1.576v-1.071h1.479v1.071h1.527v-4.474c0-1.303-1.115-1.594-1.503-1.594zM18.909 19.829h-1.487v-1.483c0 0 0-0.334 0.493-0.334h0.541c0.436 0 0.444 0.334 0.444 0.334v1.483h0.009zM21.156 16.564h1.64v6.069h-1.64v-6.069zM25.099 21.064v-4.5h-1.632v6.069h3.838v-1.569h-2.206zM0.566 22.632h6.384c0 0-1.22-5.906 2.82-8.297 0.881-0.454 3.685-2.151 8.275 1.449 0.145-0.129 0.283-0.231 0.283-0.231s-4.202-4.449-8.881-3.951c-2.351 0.223-5.244 2.494-6.941 5.494s-1.939 5.537-1.939 5.537l-0.001-0.001zM0.566 22.632h6.384c0 0-1.22-5.906 2.82-8.297 0.881-0.454 3.685-2.151 8.275 1.449 0.145-0.129 0.283-0.231 0.283-0.231s-4.202-4.449-8.881-3.951c-2.351 0.223-5.244 2.494-6.941 5.494s-1.939 5.537-1.939 5.537l-0.001-0.001zM0.566 22.632h6.384c0 0-1.22-5.906 2.82-8.297 0.881-0.454 3.685-2.151 8.275 1.449 0.145-0.129 0.283-0.231 0.283-0.231s-4.202-4.449-8.881-3.951c-2.36 0.223-5.253 2.494-6.949 5.494s-1.931 5.537-1.931 5.537l-0.001-0.001zM13.867 12.081l0.032-0.574c-0.073-0.043-0.275-0.146-0.784-0.3l-0.032 0.566c0.267 0.094 0.525 0.197 0.784 0.309v-0.001zM13.099 13.898l-0.032 0.54c0.267 0.009 0.533 0.043 0.8 0.103l0.032-0.531c-0.275-0.060-0.541-0.094-0.8-0.111v-0.001zM10.109 11.224h0.081l-0.162-0.523c-0.251 0-0.509 0.017-0.776 0.051l0.154 0.506c0.234-0.026 0.469-0.034 0.703-0.034zM10.497 14.378l0.186 0.591c0.234-0.12 0.469-0.223 0.703-0.3l-0.178-0.566c-0.275 0.086-0.509 0.18-0.711 0.274v0.001zM6.828 12.124l-0.364-0.591c-0.202 0.111-0.412 0.231-0.63 0.369l0.372 0.6c0.21-0.137 0.412-0.266 0.622-0.377v-0.001zM8.485 15.981l0.388 0.617c0.137-0.214 0.299-0.411 0.477-0.609l-0.364-0.583c-0.186 0.18-0.356 0.377-0.501 0.574v0.001zM7.313 18.741l0.655 0.549c0.032-0.334 0.089-0.669 0.17-1.003l-0.582-0.489c-0.105 0.317-0.178 0.634-0.242 0.943h-0.001zM3.774 14.669l-0.574-0.531c-0.21 0.214-0.412 0.429-0.598 0.643l0.622 0.566c0.17-0.231 0.356-0.463 0.549-0.677l0.001-0.001zM1.333 18.501l-0.929-0.36c-0.153 0.369-0.323 0.797-0.404 1.029l0.929 0.36c0.105-0.291 0.275-0.711 0.404-1.029zM7.192 20.918c0.016 0.454 0.057 0.823 0.097 1.080l0.97 0.369c-0.073-0.334-0.145-0.711-0.194-1.114l-0.873-0.335z"></path>
</symbol>
<symbol id="icon-smartphone" viewBox="0 0 20 32">
<path fill="#757575" style="fill: var(--color1, #757575)" d="M17 0h-14c-1.654 0-3 1.346-3 3v26c0 1.654 1.346 3 3 3h14c1.654 0 3-1.346 3-3v-26c0-1.654-1.346-3-3-3zM3 2h14c0.552 0 1 0.448 1 1v21h-16v-21c0-0.552 0.448-1 1-1zM17 30h-14c-0.552 0-1-0.448-1-1v-3h16v3c0 0.552-0.448 1-1 1z"></path>
<path fill="#757575" style="fill: var(--color1, #757575)" d="M4.707 27.478c0.391 0.365 0.391 0.956 0 1.321s-1.024 0.365-1.414 0c-0.391-0.365-0.391-0.956 0-1.321s1.024-0.365 1.414 0z"></path>
</symbol>
<symbol id="icon-twitter" viewBox="0 0 32 32">
<path fill="#fff" style="fill: var(--color4, #fff)" d="M32 16c0 4.418-1.791 8.418-4.686 11.314s-6.895 4.686-11.314 4.686-8.418-1.791-11.314-4.686c-2.895-2.895-4.686-6.895-4.686-11.314s1.791-8.418 4.686-11.314 6.895-4.686 11.314-4.686c4.418 0 8.418 1.791 11.314 4.686s4.686 6.895 4.686 11.314z"></path>
<path fill="#757575" style="fill: var(--color1, #757575)" d="M23.273 11.49c-0.541 0.237-1.117 0.394-1.718 0.471 0.618-0.369 1.090-0.949 1.312-1.648-0.576 0.344-1.213 0.586-1.891 0.722-0.547-0.583-1.327-0.944-2.178-0.944-1.651 0-2.98 1.34-2.98 2.983 0 0.236 0.020 0.464 0.069 0.68-2.479-0.121-4.673-1.309-6.146-3.119-0.257 0.446-0.408 0.957-0.408 1.507 0 1.033 0.532 1.948 1.325 2.478-0.479-0.009-0.949-0.148-1.347-0.367 0 0.009 0 0.021 0 0.033 0 1.449 1.034 2.653 2.389 2.93-0.243 0.066-0.507 0.098-0.782 0.098-0.191 0-0.384-0.011-0.565-0.051 0.386 1.181 1.483 2.049 2.786 2.077-1.015 0.794-2.303 1.272-3.697 1.272-0.245 0-0.479-0.011-0.714-0.041 1.321 0.852 2.886 1.338 4.575 1.338 5.487 0 8.487-4.545 8.487-8.485 0-0.132-0.005-0.259-0.011-0.385 0.592-0.42 1.089-0.944 1.495-1.548z"></path>
</symbol>
<symbol id="icon-ubereats" viewBox="0 0 32 32">
<path fill="#757575" style="fill: var(--color1, #757575)" d="M-0 3.667v6.787c0 2.56 1.787 4.253 4.107 4.253 1.133 0 2.147-0.44 2.867-1.2v1.013h1.613v-10.853h-1.627v6.693c0 1.72-1.16 2.88-2.667 2.88-1.52 0-2.667-1.133-2.667-2.88v-6.693h-1.626zM9.8 3.667v10.853h1.533v-1c0.717 0.733 1.716 1.187 2.821 1.187 0.007 0 0.013 0 0.020 0h-0.001c0.008 0 0.017 0 0.027 0 2.275 0 4.12-1.845 4.12-4.12 0-0.005 0-0.009 0-0.014v0.001c0-0.004 0-0.009 0-0.013 0-2.275-1.845-4.12-4.12-4.12-0.009 0-0.019 0-0.028 0h0.001c-1.107 0-2.093 0.453-2.84 1.173v-3.947h-1.533zM23.013 6.453c-2.347 0-4.067 1.88-4.067 4.107 0 2.36 1.827 4.107 4.2 4.107 1.44 0 2.627-0.613 3.413-1.667l-1.133-0.84c-0.587 0.787-1.36 1.173-2.28 1.173-1.333 0-2.4-0.973-2.613-2.253h6.427v-0.52c0-2.347-1.667-4.107-3.947-4.107zM31.267 6.547c-0.867 0-1.493 0.4-1.88 1.040v-0.973h-1.56v7.907h1.573v-4.52c0-1.2 0.747-2 1.76-2h0.653v-1.453h-0.547l0.001-0.001zM22.973 7.813c1.173 0 2.147 0.813 2.413 2.027h-4.827c0.28-1.213 1.253-2.027 2.413-2.027h0.001zM14.067 7.84c1.48 0 2.707 1.2 2.707 2.733 0 1.52-1.227 2.76-2.707 2.76-0.004 0-0.009 0-0.014 0-1.502 0-2.72-1.218-2.72-2.72 0-0.014 0-0.028 0-0.042v0.002c0-1.533 1.227-2.733 2.733-2.733h0.001zM-0 17.28v10.853h7.627v-1.853h-5.56v-2.693h5.413v-1.8h-5.413v-2.653h5.56v-1.853l-7.627-0.001zM19.413 17.84v2.28h-1.547v1.813h1.547v4.267c0 1.080 0.76 1.933 2.133 1.933h2.187v-1.813h-1.52c-0.467 0-0.76-0.213-0.76-0.64v-3.747h2.28v-1.813h-2.28v-2.28h-2.040zM12.427 19.92c-2.387 0-4.267 1.867-4.267 4.213 0 2.333 1.88 4.2 4.267 4.2 0.96 0 1.853-0.333 2.56-0.92v0.72h2.027v-8.013h-2.027v0.72c-0.68-0.572-1.566-0.92-2.533-0.92-0.009 0-0.019 0-0.028 0h0.001zM28.053 19.92c-2.12 0-3.6 0.867-3.6 2.56 0 1.16 0.813 1.92 2.573 2.293l1.933 0.453c0.76 0.147 0.96 0.347 0.96 0.667 0 0.493-0.587 0.813-1.507 0.813-1.16 0-1.827-0.267-2.093-1.147h-2.040c0.293 1.667 1.533 2.773 4.067 2.773 2.32 0 3.653-1.107 3.653-2.653 0-1.093-0.773-1.907-2.413-2.253l-1.72-0.36c-1-0.187-1.32-0.4-1.32-0.747 0-0.48 0.48-0.773 1.373-0.773 0.96 0 1.667 0.267 1.867 1.12h2.027c-0.107-1.64-1.32-2.747-3.76-2.747v0.001zM12.6 21.68c1.347 0 2.427 1.080 2.427 2.453s-1.080 2.44-2.427 2.44c-0.004 0-0.009 0-0.013 0-1.34 0-2.427-1.086-2.427-2.427 0-0.005 0-0.009 0-0.014v0.001c0-1.373 1.107-2.453 2.44-2.453z"></path>
</symbol>
<symbol id="icon-facebook-dark" viewBox="0 0 32 32">
<path fill="#fff" style="fill: var(--color1, #fff)" opacity="0.1" d="M32 16c0 4.418-1.791 8.418-4.686 11.314s-6.895 4.686-11.314 4.686-8.418-1.791-11.314-4.686c-2.895-2.895-4.686-6.895-4.686-11.314s1.791-8.418 4.686-11.314c2.895-2.895 6.895-4.686 11.314-4.686s8.418 1.791 11.314 4.686c2.895 2.895 4.686 6.895 4.686 11.314z"></path>
<path fill="#fff" style="fill: var(--color1, #fff)" d="M18.422 11.142h1.328v-2.313c-0.229-0.031-1.017-0.102-1.935-0.102-1.915 0-3.226 1.204-3.226 3.418v2.037h-2.113v2.585h2.113v6.505h2.59v-6.505h2.027l0.322-2.585h-2.35v-1.781c0.001-0.747 0.202-1.259 1.243-1.259z"></path>
</symbol>
<symbol id="icon-insta-dark" viewBox="0 0 32 32">
<path fill="#fff" style="fill: var(--color1, #fff)" opacity="0.1" d="M32 16c0 4.418-1.791 8.418-4.686 11.314s-6.895 4.686-11.314 4.686-8.418-1.791-11.314-4.686c-2.895-2.895-4.686-6.895-4.686-11.314s1.791-8.418 4.686-11.314c2.895-2.895 6.895-4.686 11.314-4.686s8.418 1.791 11.314 4.686c2.895 2.895 4.686 6.895 4.686 11.314z"></path>
<path fill="#fff" style="fill: var(--color1, #fff)" d="M23.258 13.004c-0.034-0.773-0.159-1.304-0.338-1.765-0.185-0.489-0.469-0.926-0.841-1.29-0.364-0.369-0.804-0.656-1.287-0.838-0.463-0.179-0.992-0.304-1.764-0.338-0.779-0.037-1.026-0.046-3.001-0.046s-2.222 0.009-2.998 0.043c-0.773 0.034-1.304 0.159-1.764 0.338-0.489 0.185-0.926 0.469-1.29 0.841-0.369 0.364-0.656 0.804-0.838 1.287-0.179 0.463-0.304 0.992-0.338 1.764-0.037 0.779-0.045 1.026-0.045 3.001s0.008 2.222 0.043 2.998c0.034 0.773 0.159 1.304 0.338 1.765 0.185 0.489 0.472 0.926 0.841 1.29 0.364 0.369 0.804 0.656 1.287 0.838 0.463 0.179 0.992 0.304 1.765 0.338 0.776 0.034 1.023 0.043 2.998 0.043s2.222-0.008 2.998-0.043c0.773-0.034 1.304-0.159 1.764-0.338 0.978-0.378 1.75-1.151 2.128-2.128 0.179-0.463 0.304-0.992 0.338-1.765 0.034-0.776 0.043-1.023 0.043-2.998s-0.003-2.222-0.037-2.998zM21.949 18.942c-0.031 0.71-0.151 1.094-0.25 1.35-0.244 0.634-0.747 1.137-1.381 1.381-0.256 0.099-0.642 0.219-1.35 0.25-0.767 0.034-0.997 0.043-2.938 0.043s-2.174-0.008-2.938-0.043c-0.71-0.031-1.094-0.15-1.35-0.25-0.315-0.116-0.602-0.301-0.835-0.543-0.242-0.236-0.426-0.52-0.543-0.835-0.099-0.256-0.219-0.642-0.25-1.35-0.034-0.767-0.043-0.997-0.043-2.938s0.008-2.174 0.043-2.938c0.031-0.71 0.151-1.094 0.25-1.35 0.117-0.315 0.301-0.602 0.546-0.835 0.236-0.242 0.52-0.426 0.835-0.543 0.256-0.099 0.642-0.219 1.35-0.25 0.767-0.034 0.997-0.043 2.938-0.043 1.944 0 2.174 0.008 2.938 0.043 0.71 0.031 1.094 0.151 1.35 0.25 0.315 0.116 0.602 0.301 0.835 0.543 0.241 0.236 0.426 0.52 0.543 0.835 0.099 0.256 0.219 0.642 0.25 1.35 0.034 0.767 0.043 0.997 0.043 2.938s-0.009 2.168-0.043 2.935z"></path>
<path fill="#fff" style="fill: var(--color1, #fff)" d="M16.027 12.265c-2.063 0-3.736 1.674-3.736 3.737s1.674 3.736 3.736 3.736c2.063 0 3.737-1.674 3.737-3.736s-1.674-3.737-3.737-3.737zM16.027 18.425c-1.338 0-2.424-1.085-2.424-2.424s1.086-2.424 2.424-2.424c1.338 0 2.424 1.085 2.424 2.424s-1.085 2.424-2.424 2.424z"></path>
<path fill="#fff" style="fill: var(--color1, #fff)" d="M20.784 12.117c0 0.482-0.391 0.872-0.872 0.872s-0.872-0.391-0.872-0.872c0-0.482 0.391-0.872 0.872-0.872s0.872 0.39 0.872 0.872z"></path>
</symbol>
<symbol id="icon-linkedin-dark" viewBox="0 0 32 32">
<path fill="#fff" style="fill: var(--color1, #fff)" opacity="0.1" d="M32 16c0 4.418-1.791 8.418-4.686 11.314s-6.895 4.686-11.314 4.686-8.418-1.791-11.314-4.686c-2.895-2.895-4.686-6.895-4.686-11.314s1.791-8.418 4.686-11.314c2.895-2.895 6.895-4.686 11.314-4.686s8.418 1.791 11.314 4.686c2.895 2.895 4.686 6.895 4.686 11.314z"></path>
<path fill="#fff" style="fill: var(--color1, #fff)" d="M23.269 23.273v-0.001h0.004v-5.335c0-2.61-0.562-4.62-3.613-4.62-1.467 0-2.451 0.805-2.853 1.568h-0.042v-1.324h-2.893v9.711h3.012v-4.809c0-1.266 0.24-2.49 1.808-2.49 1.545 0 1.568 1.445 1.568 2.572v4.728h3.009z"></path>
<path fill="#fff" style="fill: var(--color1, #fff)" d="M8.967 13.562h3.016v9.711h-3.016v-9.711z"></path>
<path fill="#fff" style="fill: var(--color1, #fff)" d="M10.474 8.727c-0.964 0-1.747 0.782-1.747 1.747s0.782 1.763 1.747 1.763c0.964 0 1.747-0.799 1.747-1.763s-0.783-1.747-1.747-1.747v0z"></path>
</symbol>
<symbol id="icon-twitter-dark" viewBox="0 0 32 32">
<path fill="#fff" style="fill: var(--color1, #fff)" opacity="0.1" d="M32 16c0 4.418-1.791 8.418-4.686 11.314s-6.895 4.686-11.314 4.686-8.418-1.791-11.314-4.686c-2.895-2.895-4.686-6.895-4.686-11.314s1.791-8.418 4.686-11.314c2.895-2.895 6.895-4.686 11.314-4.686s8.418 1.791 11.314 4.686c2.895 2.895 4.686 6.895 4.686 11.314z"></path>
<path fill="#fff" style="fill: var(--color1, #fff)" d="M23.273 11.49c-0.541 0.237-1.117 0.394-1.718 0.471 0.618-0.369 1.090-0.949 1.312-1.648-0.576 0.344-1.213 0.586-1.891 0.722-0.547-0.583-1.327-0.944-2.178-0.944-1.651 0-2.98 1.34-2.98 2.983 0 0.236 0.020 0.464 0.069 0.68-2.479-0.121-4.673-1.309-6.146-3.119-0.257 0.446-0.408 0.957-0.408 1.507 0 1.033 0.532 1.948 1.325 2.478-0.479-0.009-0.949-0.148-1.347-0.367 0 0.009 0 0.021 0 0.033 0 1.449 1.034 2.653 2.389 2.93-0.243 0.066-0.507 0.098-0.782 0.098-0.191 0-0.384-0.011-0.565-0.051 0.386 1.181 1.483 2.049 2.786 2.077-1.015 0.794-2.303 1.272-3.697 1.272-0.245 0-0.479-0.011-0.714-0.041 1.321 0.852 2.886 1.338 4.575 1.338 5.487 0 8.487-4.545 8.487-8.485 0-0.132-0.005-0.259-0.011-0.385 0.592-0.42 1.089-0.944 1.495-1.548z"></path>
</symbol>
</defs>
</svg>
