<svg width="57" height="58" viewBox="0 0 57 58" fill="none" xmlns="http://www.w3.org/2000/svg">
<g clip-path="url(#clip0_501234_595)">
<path d="M33.8905 4.2863L29.8657 0.836657C29.4228 0.454757 28.7639 0.454757 28.321 0.836657L24.1645 4.39916C23.7861 4.72235 23.6504 5.24618 23.8237 5.71244C23.9953 6.1787 24.4393 6.48764 24.9369 6.48764H26.1242V8.86283C26.1242 9.5189 26.6554 10.0501 27.3115 10.0501H30.874C31.5301 10.0501 32.0619 9.5189 32.0619 8.86283V6.48764H33.2486C33.2566 6.48935 33.2663 6.48935 33.272 6.48764C33.9286 6.48764 34.4599 5.9564 34.4599 5.30033C34.4605 4.87055 34.2313 4.49492 33.8905 4.2863Z" fill="#EC3C05"/>
<path d="M24.3184 53.8141L28.3437 57.2632C28.7866 57.6462 29.4461 57.6462 29.8884 57.2632L34.0449 53.7007C34.4228 53.3787 34.5579 52.8548 34.3857 52.388C34.2141 51.9217 33.7701 51.6128 33.2725 51.6128H32.0852V49.2376C32.0852 48.5815 31.554 48.0503 30.8979 48.0503H27.3354C26.6793 48.0503 26.1481 48.5815 26.1481 49.2376V51.6128H24.9602C24.9516 51.6111 24.9425 51.6111 24.9368 51.6128C24.2802 51.6128 23.7495 52.144 23.7495 52.8001C23.7495 53.2293 23.9775 53.6061 24.3184 53.8141Z" fill="#EC3C05"/>
<path d="M53.2636 34.4188L56.7127 30.3934C57.0957 29.9511 57.0957 29.2916 56.7127 28.8487L53.1502 24.6923C52.8281 24.3144 52.3043 24.1787 51.8375 24.3514C51.3712 24.523 51.0623 24.9676 51.0623 25.4646V26.6519H48.6871C48.031 26.6519 47.4998 27.1832 47.4998 27.8392V31.4017C47.4998 32.0578 48.031 32.5891 48.6871 32.5891H51.0623V33.7764C51.0605 33.7855 51.0605 33.794 51.0623 33.7997C51.0623 34.4564 51.5935 34.9876 52.2496 34.9876C52.6793 34.9882 53.0555 34.7602 53.2636 34.4188Z" fill="#EC3C05"/>
<path d="M3.73568 24.8456L0.286608 28.8709C-0.0958616 29.3138 -0.0958616 29.9727 0.286608 30.4156L3.84911 34.5715C4.17173 34.95 4.69556 35.0845 5.16182 34.9124C5.62808 34.7408 5.93702 34.2968 5.93702 33.7992V32.6124H8.31221C8.96828 32.6124 9.49952 32.0806 9.49952 31.4245V27.862C9.49952 27.206 8.96828 26.6747 8.31221 26.6747H5.93702V25.4874C5.93873 25.4789 5.93873 25.4697 5.93702 25.464C5.93702 24.808 5.40578 24.2767 4.74971 24.2767C4.3205 24.2762 3.9443 24.5047 3.73568 24.8456Z" fill="#EC3C05"/>
<path d="M39.151 45.3884L36.8374 36.1367L39.1675 23.326C39.2855 22.6813 38.858 22.0628 38.2111 21.946C37.5681 21.8217 36.9485 22.2555 36.8317 22.9019L34.6332 34.9882H27.3121C26.656 34.9882 26.1248 35.5194 26.1248 36.1755C26.1248 36.8315 26.656 37.3628 27.3121 37.3628H28.1665L26.1601 45.3878C26 46.0228 26.3876 46.668 27.0248 46.8271C27.1206 46.851 27.2181 46.8624 27.3133 46.8624C27.8462 46.8624 28.329 46.5027 28.4635 45.9624L30.613 37.3622H34.6976L36.8471 45.9624C36.9816 46.5027 37.4661 46.8624 37.9985 46.8624C38.0931 46.8624 38.1906 46.8504 38.2875 46.8271C38.9236 46.6686 39.3112 46.0234 39.151 45.3884Z" fill="black"/>
<path d="M33.6419 33.8003L34.5049 29.0505H11.8748V46.863H15.4373V33.8003H27.3121H33.6419Z" fill="black"/>
<path d="M39.3334 29.0505L38.4688 33.8003H41.5621V46.863H45.1246V29.0505H39.3334Z" fill="black"/>
<path d="M27.3122 23.1128V12.4253H14.2495V23.1128H18.9993V24.3001C18.9993 25.3803 18.4567 25.4874 16.6241 25.4874C14.184 25.4874 14.2489 26.7813 14.2489 27.8626H20.2493H21.3118H26.1243H27.3116C27.3116 26.783 27.3116 25.4874 24.9364 25.4874C23.1039 25.4874 22.5613 25.3803 22.5613 24.3001V23.1128H27.3122ZM16.6247 20.7382V14.8005H24.9376V20.7382H16.6247Z" fill="black"/>
</g>
<defs>
<clipPath id="clip0_501234_595">
<rect width="57" height="57" fill="white" transform="translate(0 0.549927)"/>
</clipPath>
</defs>
</svg>
