<svg width="18" height="18" viewBox="0 0 18 18" fill="none" xmlns="http://www.w3.org/2000/svg">
<g clip-path="url(#clip0_501209_374)">
<path d="M13.996 11.1224L12.1579 10.9126C11.7164 10.8619 11.2822 11.0139 10.971 11.3251L9.63945 12.6566C7.59144 11.6145 5.91251 9.94283 4.87041 7.88758L6.20922 6.54876C6.5204 6.23758 6.67237 5.80337 6.62171 5.36192L6.41185 3.53824C6.325 2.80732 5.70988 2.25732 4.97173 2.25732H3.71976C2.902 2.25732 2.22175 2.93759 2.2724 3.75535C2.65595 9.9356 7.59868 14.8711 13.7717 15.2547C14.5894 15.3053 15.2697 14.6251 15.2697 13.8073V12.5553C15.2769 11.8244 14.7269 11.2093 13.996 11.1224Z" fill="#212121"/>
</g>
<defs>
<clipPath id="clip0_501209_374">
<rect width="18" height="18" fill="white"/>
</clipPath>
</defs>
</svg>
